<mxfile host="app.diagrams.net" modified="2023-04-15T15:00:37.384Z" agent="Mozilla/5.0 (Macintosh; Intel Mac OS X 10_15_7) AppleWebKit/605.1.15 (KHTML, like Gecko) Version/16.4 Safari/605.1.15" etag="x4rcDs7WmOvOYLUlgq7x" version="21.1.8">
  <diagram name="Page-1" id="7H1OACH9sm2t9XfpA4sT">
    <mxGraphModel dx="658" dy="377" grid="1" gridSize="10" guides="1" tooltips="1" connect="1" arrows="1" fold="1" page="1" pageScale="1" pageWidth="827" pageHeight="1169" math="0" shadow="0">
      <root>
        <mxCell id="0" />
        <mxCell id="1" parent="0" />
        <mxCell id="FnI83Za5dlVnPbMRfzSO-3" value="" style="rounded=1;whiteSpace=wrap;html=1;" vertex="1" parent="1">
          <mxGeometry x="150" y="195" width="294.87" height="170" as="geometry" />
        </mxCell>
        <mxCell id="FnI83Za5dlVnPbMRfzSO-1" value="" style="image;aspect=fixed;html=1;points=[];align=center;fontSize=12;image=img/lib/azure2/networking/Virtual_Networks.svg;" vertex="1" parent="1">
          <mxGeometry x="180" y="165" width="50.25" height="30" as="geometry" />
        </mxCell>
        <mxCell id="FnI83Za5dlVnPbMRfzSO-6" value="" style="endArrow=none;html=1;rounded=0;exitX=1;exitY=0.5;exitDx=0;exitDy=0;entryX=0.013;entryY=0.496;entryDx=0;entryDy=0;entryPerimeter=0;" edge="1" parent="1" source="FnI83Za5dlVnPbMRfzSO-3" target="FnI83Za5dlVnPbMRfzSO-9">
          <mxGeometry width="50" height="50" relative="1" as="geometry">
            <mxPoint x="390" y="310" as="sourcePoint" />
            <mxPoint x="560" y="280" as="targetPoint" />
          </mxGeometry>
        </mxCell>
        <mxCell id="FnI83Za5dlVnPbMRfzSO-9" value="" style="image;aspect=fixed;html=1;points=[];align=center;fontSize=12;image=img/lib/azure2/networking/DNS_Zones.svg;" vertex="1" parent="1">
          <mxGeometry x="520" y="240" width="80" height="80" as="geometry" />
        </mxCell>
        <mxCell id="FnI83Za5dlVnPbMRfzSO-12" value="Subnet" style="sketch=0;outlineConnect=0;gradientColor=none;html=1;whiteSpace=wrap;fontSize=12;fontStyle=0;shape=mxgraph.aws4.group;grIcon=mxgraph.aws4.group_subnet;strokeColor=#879196;fillColor=none;verticalAlign=top;align=left;spacingLeft=30;fontColor=#879196;dashed=0;" vertex="1" parent="1">
          <mxGeometry x="160" y="210" width="270" height="140" as="geometry" />
        </mxCell>
        <mxCell id="FnI83Za5dlVnPbMRfzSO-13" value="" style="image;aspect=fixed;html=1;points=[];align=center;fontSize=12;image=img/lib/azure2/compute/Virtual_Machine.svg;" vertex="1" parent="1">
          <mxGeometry x="185.5" y="248" width="69" height="64" as="geometry" />
        </mxCell>
        <mxCell id="FnI83Za5dlVnPbMRfzSO-14" value="" style="image;aspect=fixed;html=1;points=[];align=center;fontSize=12;image=img/lib/azure2/compute/Virtual_Machine.svg;" vertex="1" parent="1">
          <mxGeometry x="345" y="248" width="69" height="64" as="geometry" />
        </mxCell>
        <mxCell id="FnI83Za5dlVnPbMRfzSO-15" value="vm1.mydomain.com" style="text;html=1;align=center;verticalAlign=middle;resizable=0;points=[];autosize=1;strokeColor=none;fillColor=none;" vertex="1" parent="1">
          <mxGeometry x="155" y="320" width="130" height="30" as="geometry" />
        </mxCell>
        <mxCell id="FnI83Za5dlVnPbMRfzSO-18" value="vm2.mydomain.com" style="text;html=1;align=center;verticalAlign=middle;resizable=0;points=[];autosize=1;strokeColor=none;fillColor=none;" vertex="1" parent="1">
          <mxGeometry x="305" y="320" width="130" height="30" as="geometry" />
        </mxCell>
        <mxCell id="FnI83Za5dlVnPbMRfzSO-19" value="mydomain.com" style="text;html=1;align=center;verticalAlign=middle;resizable=0;points=[];autosize=1;strokeColor=none;fillColor=none;" vertex="1" parent="1">
          <mxGeometry x="510" y="320" width="100" height="30" as="geometry" />
        </mxCell>
      </root>
    </mxGraphModel>
  </diagram>
</mxfile>
